<svg width="69" height="74" viewBox="0 0 69 74" fill="none" xmlns="http://www.w3.org/2000/svg">
<path fill-rule="evenodd" clip-rule="evenodd" d="M2 12.0142H66.6012V23.3705V71.5886H44.2699V71.4025H2V12.0142Z" stroke="#9494A8" stroke-width="2.97619" stroke-miterlimit="22.9256" stroke-linecap="round" stroke-linejoin="round"/>
<path d="M17.7515 14.2482H4.99072V45.3386H17.7515V14.2482Z" stroke="#9494A8" stroke-width="1.4881" stroke-miterlimit="22.9256" stroke-linecap="round" stroke-linejoin="round"/>
<path d="M33.1043 14.2482H19.3467V45.3386H33.1043V14.2482Z" stroke="#9494A8" stroke-width="1.4881" stroke-miterlimit="22.9256" stroke-linecap="round" stroke-linejoin="round"/>
<path d="M49.055 14.2482H35.2974V45.3386H49.055V14.2482Z" stroke="#9494A8" stroke-width="1.4881" stroke-miterlimit="22.9256" stroke-linecap="round" stroke-linejoin="round"/>
<path d="M63.8096 14.2482H51.0488V45.3386H63.8096V14.2482Z" stroke="#9494A8" stroke-width="1.4881" stroke-miterlimit="22.9256" stroke-linecap="round" stroke-linejoin="round"/>
<path d="M17.7515 47.0142H4.99072V68.6099H17.7515V47.0142Z" stroke="#9494A8" stroke-width="1.4881" stroke-miterlimit="22.9256" stroke-linecap="round" stroke-linejoin="round"/>
<path d="M33.1043 47.0142H19.3467V68.6099H33.1043V47.0142Z" stroke="#9494A8" stroke-width="1.4881" stroke-miterlimit="22.9256" stroke-linecap="round" stroke-linejoin="round"/>
<path d="M49.055 47.0142H35.2974V68.6099H49.055V47.0142Z" stroke="#9494A8" stroke-width="1.4881" stroke-miterlimit="22.9256" stroke-linecap="round" stroke-linejoin="round"/>
<path d="M63.8096 47.0142H51.0488V68.6099H63.8096V47.0142Z" stroke="#9494A8" stroke-width="1.4881" stroke-miterlimit="22.9256" stroke-linecap="round" stroke-linejoin="round"/>
<path fill-rule="evenodd" clip-rule="evenodd" d="M8.18097 1.58862H61.2178C62.2147 3.45033 67 11.828 67 12.0142L2.59814 11.828L8.18097 1.58862V1.58862Z" stroke="#9494A8" stroke-width="2.97619" stroke-miterlimit="22.9256" stroke-linecap="round" stroke-linejoin="round"/>
<path d="M12.966 4.3811L10.374 8.66302" stroke="#9494A8" stroke-width="1.4881" stroke-miterlimit="22.9256" stroke-linecap="round" stroke-linejoin="round"/>
<path d="M19.7455 4.5675L18.7485 8.66325" stroke="#9494A8" stroke-width="1.4881" stroke-miterlimit="22.9256" stroke-linecap="round" stroke-linejoin="round"/>
<path d="M27.1226 4.5675L26.5244 8.66325" stroke="#9494A8" stroke-width="1.4881" stroke-miterlimit="22.9256" stroke-linecap="round" stroke-linejoin="round"/>
<path d="M34.6992 4.3811V8.66302" stroke="#9494A8" stroke-width="1.4881" stroke-miterlimit="22.9256" stroke-linecap="round" stroke-linejoin="round"/>
<path d="M49.6532 4.56727L50.6501 8.66302M56.4323 4.3811L59.0244 8.66302L56.4323 4.3811ZM34.6992 4.3811V8.66302V4.3811ZM42.2759 4.56727L42.6747 8.66302L42.2759 4.56727Z" stroke="#9494A8" stroke-width="1.4881" stroke-miterlimit="22.9256" stroke-linecap="round" stroke-linejoin="round"/>
</svg>
