<svg width="69" height="77" viewBox="0 0 69 77" fill="none" xmlns="http://www.w3.org/2000/svg">
<path d="M17.7471 15.7916H5.21143V48.1369H17.7471V15.7916Z" stroke="#9494A8" stroke-width="1.3865" stroke-miterlimit="22.9256" stroke-linecap="round" stroke-linejoin="round"/>
<path d="M33.3778 15.7916H19.604V48.1369H33.3778V15.7916Z" stroke="#9494A8" stroke-width="1.3865" stroke-miterlimit="22.9256" stroke-linecap="round" stroke-linejoin="round"/>
<path d="M49.0092 15.7916H35.2354V48.1369H49.0092V15.7916Z" stroke="#9494A8" stroke-width="1.3865" stroke-miterlimit="22.9256" stroke-linecap="round" stroke-linejoin="round"/>
<path d="M63.5567 15.7916H51.021V48.1369H63.5567V15.7916Z" stroke="#9494A8" stroke-width="1.3865" stroke-miterlimit="22.9256" stroke-linecap="round" stroke-linejoin="round"/>
<path fill-rule="evenodd" clip-rule="evenodd" d="M1.80664 13.0059H66.8066V20.2797H66.6519V51.5416H44.2114V51.3868H1.80664V13.0059Z" stroke="#9494A8" stroke-width="2.77301" stroke-miterlimit="22.9256" stroke-linecap="round" stroke-linejoin="round"/>
<path d="M8.61621 58.3511V70.113" stroke="#9494A8" stroke-width="1.3865" stroke-miterlimit="22.9256" stroke-linecap="round" stroke-linejoin="round"/>
<path d="M15.8901 58.3511V70.113" stroke="#9494A8" stroke-width="1.3865" stroke-miterlimit="22.9256" stroke-linecap="round" stroke-linejoin="round"/>
<path d="M22.5444 58.3511V70.113" stroke="#9494A8" stroke-width="1.3865" stroke-miterlimit="22.9256" stroke-linecap="round" stroke-linejoin="round"/>
<path d="M29.6636 58.3511V70.113" stroke="#9494A8" stroke-width="1.3865" stroke-miterlimit="22.9256" stroke-linecap="round" stroke-linejoin="round"/>
<path d="M36.4731 58.3511V70.113" stroke="#9494A8" stroke-width="1.3865" stroke-miterlimit="22.9256" stroke-linecap="round" stroke-linejoin="round"/>
<path d="M43.5923 58.3511V70.113" stroke="#9494A8" stroke-width="1.3865" stroke-miterlimit="22.9256" stroke-linecap="round" stroke-linejoin="round"/>
<path d="M50.4019 58.3511V70.113" stroke="#9494A8" stroke-width="1.3865" stroke-miterlimit="22.9256" stroke-linecap="round" stroke-linejoin="round"/>
<path d="M57.6758 58.3511V70.113" stroke="#9494A8" stroke-width="1.3865" stroke-miterlimit="22.9256" stroke-linecap="round" stroke-linejoin="round"/>
<path fill-rule="evenodd" clip-rule="evenodd" d="M7.53283 1.55347H60.9257L66.8066 13.1606V15.6368H66.6519V75.2201H44.2114V75.0654H1.80664V12.6963L7.53283 1.55347Z" stroke="#9494A8" stroke-width="2.77301" stroke-miterlimit="22.9256" stroke-linecap="round" stroke-linejoin="round"/>
<path fill-rule="evenodd" clip-rule="evenodd" d="M10.0092 3.56543H20.0687L18.3663 10.6845H6.29492L10.0092 3.56543V3.56543ZM21.6163 3.56543H33.3783V10.6845H20.0687L21.6163 3.56543Z" stroke="#9494A8" stroke-width="1.3865" stroke-miterlimit="22.9256" stroke-linecap="round" stroke-linejoin="round"/>
<path fill-rule="evenodd" clip-rule="evenodd" d="M58.6044 3.56543H48.3901L50.0925 10.6845H62.3187L58.6044 3.56543V3.56543ZM46.8425 3.56543H35.0806V10.6845H48.3901L46.8425 3.56543Z" stroke="#9494A8" stroke-width="1.3865" stroke-miterlimit="22.9256" stroke-linecap="round" stroke-linejoin="round"/>
</svg>
