<svg width="73" height="70" viewBox="0 0 73 70" fill="none" xmlns="http://www.w3.org/2000/svg">
<path fill-rule="evenodd" clip-rule="evenodd" d="M1.53223 46.8239H71.2097L63.629 68.4368H46.0484H8.30642L1.53223 46.8239Z" stroke="#9494A8" stroke-width="2.47191" stroke-miterlimit="22.9256" stroke-linecap="round" stroke-linejoin="round"/>
<path d="M18.629 14.2432H5.08057V43.9206H18.629V14.2432Z" stroke="#9494A8" stroke-width="1.1236" stroke-miterlimit="22.9256" stroke-linecap="round" stroke-linejoin="round"/>
<path d="M35.2419 14.2432H20.5645V43.9206H35.2419V14.2432Z" stroke="#9494A8" stroke-width="1.1236" stroke-miterlimit="22.9256" stroke-linecap="round" stroke-linejoin="round"/>
<path d="M52.0163 14.2432H37.3389V43.9206H52.0163V14.2432Z" stroke="#9494A8" stroke-width="1.1236" stroke-miterlimit="22.9256" stroke-linecap="round" stroke-linejoin="round"/>
<path d="M67.8228 14.2432H54.2744V43.9206H67.8228V14.2432Z" stroke="#9494A8" stroke-width="1.1236" stroke-miterlimit="22.9256" stroke-linecap="round" stroke-linejoin="round"/>
<path fill-rule="evenodd" clip-rule="evenodd" d="M1.53223 11.6626H71.2097V18.2755V46.9852H47.0161V46.8239H1.53223V11.6626Z" stroke="#9494A8" stroke-width="2.47191" stroke-miterlimit="22.9256" stroke-linecap="round" stroke-linejoin="round"/>
<path d="M13.4678 51.9851L16.5323 63.2754" stroke="#9494A8" stroke-width="1.1236" stroke-miterlimit="22.9256" stroke-linecap="round" stroke-linejoin="round"/>
<path d="M24.4355 51.6626L26.2097 63.1142" stroke="#9494A8" stroke-width="1.1236" stroke-miterlimit="22.9256" stroke-linecap="round" stroke-linejoin="round"/>
<path d="M35.7261 51.5012V63.2754" stroke="#9494A8" stroke-width="1.1236" stroke-miterlimit="22.9256" stroke-linecap="round" stroke-linejoin="round"/>
<path d="M58.1452 51.9851L54.9194 63.2754" stroke="#9494A8" stroke-width="1.1236" stroke-miterlimit="22.9256" stroke-linecap="round" stroke-linejoin="round"/>
<path d="M47.1777 51.6626L45.2422 63.1142" stroke="#9494A8" stroke-width="1.1236" stroke-miterlimit="22.9256" stroke-linecap="round" stroke-linejoin="round"/>
<path fill-rule="evenodd" clip-rule="evenodd" d="M7.66142 1.50122H65.0808C66.2098 3.4367 71.3711 11.3399 71.3711 11.6625L1.37109 11.5012L7.66142 1.50122V1.50122Z" stroke="#9494A8" stroke-width="2.47191" stroke-miterlimit="22.9256" stroke-linecap="round" stroke-linejoin="round"/>
<path d="M12.823 4.24316L10.0811 8.43671" stroke="#9494A8" stroke-width="1.1236" stroke-miterlimit="22.9256" stroke-linecap="round" stroke-linejoin="round"/>
<path d="M20.242 4.40442L18.9517 8.27539" stroke="#9494A8" stroke-width="1.1236" stroke-miterlimit="22.9256" stroke-linecap="round" stroke-linejoin="round"/>
<path d="M28.145 4.40442L27.6611 8.43668" stroke="#9494A8" stroke-width="1.1236" stroke-miterlimit="22.9256" stroke-linecap="round" stroke-linejoin="round"/>
<path d="M36.3711 4.40442V8.43668" stroke="#9494A8" stroke-width="1.1236" stroke-miterlimit="22.9256" stroke-linecap="round" stroke-linejoin="round"/>
<path d="M52.5001 4.40445L53.7904 8.27542M59.9195 4.24316L62.6614 8.43671L59.9195 4.24316ZM36.3711 4.40445V8.43671V4.40445ZM44.5969 4.40445L45.0808 8.43671L44.5969 4.40445Z" stroke="#9494A8" stroke-width="1.1236" stroke-miterlimit="22.9256" stroke-linecap="round" stroke-linejoin="round"/>
<path fill-rule="evenodd" clip-rule="evenodd" d="M7.66142 1.50122H65.0808C66.2098 3.4367 71.3711 11.3399 71.3711 11.6625L1.37109 11.5012L7.66142 1.50122V1.50122Z" stroke="#9494A8" stroke-width="2.47191" stroke-miterlimit="22.9256" stroke-linecap="round" stroke-linejoin="round"/>
<path d="M12.823 4.24316L10.0811 8.43671" stroke="#9494A8" stroke-width="1.1236" stroke-miterlimit="22.9256" stroke-linecap="round" stroke-linejoin="round"/>
<path d="M20.242 4.40442L18.9517 8.27539" stroke="#9494A8" stroke-width="1.1236" stroke-miterlimit="22.9256" stroke-linecap="round" stroke-linejoin="round"/>
<path d="M28.145 4.40442L27.6611 8.43668" stroke="#9494A8" stroke-width="1.1236" stroke-miterlimit="22.9256" stroke-linecap="round" stroke-linejoin="round"/>
<path d="M36.3711 4.40442V8.43668" stroke="#9494A8" stroke-width="1.1236" stroke-miterlimit="22.9256" stroke-linecap="round" stroke-linejoin="round"/>
<path d="M52.5001 4.40445L53.7904 8.27542M59.9195 4.24316L62.6614 8.43671L59.9195 4.24316ZM36.3711 4.40445V8.43671V4.40445ZM44.5969 4.40445L45.0808 8.43671L44.5969 4.40445Z" stroke="#9494A8" stroke-width="1.1236" stroke-miterlimit="22.9256" stroke-linecap="round" stroke-linejoin="round"/>
</svg>
