<svg width="83" height="73" viewBox="0 0 83 73" fill="none" xmlns="http://www.w3.org/2000/svg">
<path fill-rule="evenodd" clip-rule="evenodd" d="M1.56348 12.313H61.5635V19.3584C61.3362 19.3584 60.8817 19.3584 60.4271 19.3584C57.6998 19.3584 55.1998 21.6312 55.1998 24.5857V49.5857H1.56348V12.313V12.313Z" stroke="#9494A8" stroke-width="2.21656" stroke-miterlimit="22.9256" stroke-linecap="round" stroke-linejoin="round"/>
<path fill-rule="evenodd" clip-rule="evenodd" d="M1.56348 49.5857H55.1998V53.9039C53.3817 55.2675 52.2453 57.5402 52.2453 60.0402C52.2453 64.5857 55.8817 68.2221 60.4271 68.2221C60.8817 68.2221 61.1089 68.2221 61.5635 67.9948V71.4039H1.56348V49.5857V49.5857Z" stroke="#9494A8" stroke-width="2.21656" stroke-miterlimit="22.9256" stroke-linecap="round" stroke-linejoin="round"/>
<path d="M16.1087 14.5857H4.29053V47.5402H16.1087V14.5857Z" stroke="#9494A8" stroke-width="1.10828" stroke-miterlimit="22.9256" stroke-linecap="round" stroke-linejoin="round"/>
<path d="M30.6543 14.5857H17.6997V47.5402H30.6543V14.5857Z" stroke="#9494A8" stroke-width="1.10828" stroke-miterlimit="22.9256" stroke-linecap="round" stroke-linejoin="round"/>
<path d="M45.4272 14.5857H32.4727V47.5402H45.4272V14.5857Z" stroke="#9494A8" stroke-width="1.10828" stroke-miterlimit="22.9256" stroke-linecap="round" stroke-linejoin="round"/>
<path fill-rule="evenodd" clip-rule="evenodd" d="M47.0181 14.5857H59.7453V19.3584C57.2453 19.5857 55.1999 21.8584 55.1999 24.5857V47.5402H47.0181V14.5857V14.5857Z" stroke="#9494A8" stroke-width="1.10828" stroke-miterlimit="22.9256" stroke-linecap="round" stroke-linejoin="round"/>
<path d="M8.60889 54.5857V65.9493" stroke="#9494A8" stroke-width="1.10828" stroke-miterlimit="22.9256" stroke-linecap="round" stroke-linejoin="round"/>
<path d="M15.4272 54.5857V65.9493" stroke="#9494A8" stroke-width="1.10828" stroke-miterlimit="22.9256" stroke-linecap="round" stroke-linejoin="round"/>
<path d="M22.0181 54.5857V65.9493" stroke="#9494A8" stroke-width="1.10828" stroke-miterlimit="22.9256" stroke-linecap="round" stroke-linejoin="round"/>
<path d="M28.8364 54.5857V65.9493" stroke="#9494A8" stroke-width="1.10828" stroke-miterlimit="22.9256" stroke-linecap="round" stroke-linejoin="round"/>
<path d="M35.1997 54.5857V65.9493" stroke="#9494A8" stroke-width="1.10828" stroke-miterlimit="22.9256" stroke-linecap="round" stroke-linejoin="round"/>
<path d="M42.0181 54.5857V65.9493" stroke="#9494A8" stroke-width="1.10828" stroke-miterlimit="22.9256" stroke-linecap="round" stroke-linejoin="round"/>
<path d="M48.3818 54.5857V65.9493" stroke="#9494A8" stroke-width="1.10828" stroke-miterlimit="22.9256" stroke-linecap="round" stroke-linejoin="round"/>
<path fill-rule="evenodd" clip-rule="evenodd" d="M65.6542 54.1311C67.4724 55.722 68.3815 57.7675 68.3815 60.0402C68.3815 64.5857 64.7451 68.222 60.4269 68.222C55.8815 68.222 52.2451 64.5857 52.2451 60.0402C52.2451 57.5402 53.3815 55.2675 55.1997 53.9039V24.5857C55.1997 21.6311 57.6997 19.3584 60.4269 19.3584C63.3815 19.3584 65.6542 21.6311 65.6542 24.5857V54.1311Z" stroke="#9494A8" stroke-width="2.21656" stroke-miterlimit="22.9256" stroke-linecap="round" stroke-linejoin="round"/>
<path fill-rule="evenodd" clip-rule="evenodd" d="M60.4273 24.3584C61.5637 24.3584 62.4728 25.2675 62.4728 26.4039V57.0857C63.6092 57.7675 64.291 58.9039 64.291 60.2675C64.291 62.5402 62.4728 64.3584 60.4273 64.3584C58.1546 64.3584 56.3364 62.5402 56.3364 60.2675C56.3364 58.9039 57.2455 57.5402 58.6092 56.8584V26.4039C58.6092 25.2675 59.5182 24.3584 60.4273 24.3584V24.3584Z" stroke="#9494A8" stroke-width="2.21656" stroke-miterlimit="22.9256" stroke-linecap="round" stroke-linejoin="round"/>
<path fill-rule="evenodd" clip-rule="evenodd" d="M62.4728 51.4038V57.0856C63.6092 57.7674 64.291 58.9038 64.291 60.2674C64.291 62.5402 62.4728 64.3584 60.4273 64.3584C58.1546 64.3584 56.3364 62.5402 56.3364 60.2674C56.3364 58.9038 57.2455 57.5402 58.6092 56.8584V51.4038H62.4728Z" fill="#9494A8" stroke="#9494A8" stroke-width="2.21656" stroke-miterlimit="22.9256" stroke-linecap="round" stroke-linejoin="round"/>
<path d="M75.1997 37.7676V52.9949" stroke="#9494A8" stroke-width="2.21656" stroke-miterlimit="22.9256" stroke-linecap="round" stroke-linejoin="round"/>
<path d="M81.5634 49.1311L68.6089 41.6311" stroke="#9494A8" stroke-width="2.21656" stroke-miterlimit="22.9256" stroke-linecap="round" stroke-linejoin="round"/>
<path d="M68.6089 49.1311L81.5634 41.6311" stroke="#9494A8" stroke-width="2.21656" stroke-miterlimit="22.9256" stroke-linecap="round" stroke-linejoin="round"/>
<path fill-rule="evenodd" clip-rule="evenodd" d="M7.24534 1.8584H56.3363C57.2453 3.90385 61.7908 12.0857 61.7908 12.3129L2.01807 12.0857L7.24534 1.8584V1.8584Z" stroke="#9494A8" stroke-width="2.21656" stroke-miterlimit="22.9256" stroke-linecap="round" stroke-linejoin="round"/>
<path d="M11.5633 4.58569L9.29053 8.90388" stroke="#9494A8" stroke-width="1.10828" stroke-miterlimit="22.9256" stroke-linecap="round" stroke-linejoin="round"/>
<path d="M17.9272 4.81299L17.0181 8.9039" stroke="#9494A8" stroke-width="1.10828" stroke-miterlimit="22.9256" stroke-linecap="round" stroke-linejoin="round"/>
<path d="M24.7451 4.81299L24.2905 8.9039" stroke="#9494A8" stroke-width="1.10828" stroke-miterlimit="22.9256" stroke-linecap="round" stroke-linejoin="round"/>
<path d="M31.7905 4.81299V8.9039" stroke="#9494A8" stroke-width="1.10828" stroke-miterlimit="22.9256" stroke-linecap="round" stroke-linejoin="round"/>
<path d="M45.6542 4.81297L46.5633 8.90388M52.0178 4.58569L54.2905 8.90388L52.0178 4.58569ZM31.7905 4.81297V8.90388V4.81297ZM38.836 4.81297L39.2905 8.90388L38.836 4.81297Z" stroke="#9494A8" stroke-width="1.10828" stroke-miterlimit="22.9256" stroke-linecap="round" stroke-linejoin="round"/>
</svg>
