<svg width="83" height="73" viewBox="0 0 83 73" fill="none" xmlns="http://www.w3.org/2000/svg">
<path fill-rule="evenodd" clip-rule="evenodd" d="M1.6001 12.4011H61.5484V19.4295C61.135 19.4295 60.9283 19.2228 60.5148 19.2228C57.6208 19.2228 55.3469 21.7034 55.3469 24.5975V49.4037H1.6001V12.4011V12.4011Z" stroke="#8C8C94" stroke-width="2.26957" stroke-miterlimit="22.9256" stroke-linecap="round" stroke-linejoin="round"/>
<path fill-rule="evenodd" clip-rule="evenodd" d="M1.6001 49.4036H55.3469V53.9514C53.4864 55.3984 52.2461 57.6723 52.2461 60.1529C52.2461 64.494 55.967 68.2149 60.3081 68.2149C60.7215 68.2149 61.135 68.0082 61.5484 68.0082V71.3157H1.6001V49.4036V49.4036Z" stroke="#8C8C94" stroke-width="2.26957" stroke-miterlimit="22.9256" stroke-linecap="round" stroke-linejoin="round"/>
<path d="M16.0704 14.4683H4.49414V47.3365H16.0704V14.4683Z" stroke="#8C8C94" stroke-width="1.0087" stroke-miterlimit="22.9256" stroke-linecap="round" stroke-linejoin="round"/>
<path d="M30.7472 14.4683H17.9307V47.3365H30.7472V14.4683Z" stroke="#8C8C94" stroke-width="1.0087" stroke-miterlimit="22.9256" stroke-linecap="round" stroke-linejoin="round"/>
<path d="M45.2179 14.4683H32.4014V47.3365H45.2179V14.4683Z" stroke="#8C8C94" stroke-width="1.0087" stroke-miterlimit="22.9256" stroke-linecap="round" stroke-linejoin="round"/>
<path fill-rule="evenodd" clip-rule="evenodd" d="M47.0781 14.4683H59.8947V19.4295C57.2073 19.6362 55.3469 21.9101 55.3469 24.5975V47.3365H47.0781V14.4683V14.4683Z" stroke="#8C8C94" stroke-width="1.0087" stroke-miterlimit="22.9256" stroke-linecap="round" stroke-linejoin="round"/>
<path d="M8.83545 54.5715V65.941" stroke="#8C8C94" stroke-width="1.0087" stroke-miterlimit="22.9256" stroke-linecap="round" stroke-linejoin="round"/>
<path d="M15.6567 54.5715V65.941" stroke="#8C8C94" stroke-width="1.0087" stroke-miterlimit="22.9256" stroke-linecap="round" stroke-linejoin="round"/>
<path d="M22.0654 54.5715V65.941" stroke="#8C8C94" stroke-width="1.0087" stroke-miterlimit="22.9256" stroke-linecap="round" stroke-linejoin="round"/>
<path d="M28.8867 54.5715V65.941" stroke="#8C8C94" stroke-width="1.0087" stroke-miterlimit="22.9256" stroke-linecap="round" stroke-linejoin="round"/>
<path d="M35.2954 54.5715V65.941" stroke="#8C8C94" stroke-width="1.0087" stroke-miterlimit="22.9256" stroke-linecap="round" stroke-linejoin="round"/>
<path d="M42.1167 54.5715V65.941" stroke="#8C8C94" stroke-width="1.0087" stroke-miterlimit="22.9256" stroke-linecap="round" stroke-linejoin="round"/>
<path d="M48.5254 54.5715V65.941" stroke="#8C8C94" stroke-width="1.0087" stroke-miterlimit="22.9256" stroke-linecap="round" stroke-linejoin="round"/>
<path fill-rule="evenodd" clip-rule="evenodd" d="M65.6828 54.1581C67.3365 55.6051 68.3701 57.6723 68.3701 60.1529C68.3701 64.494 64.8559 68.2149 60.3081 68.2149C55.967 68.2149 52.2461 64.494 52.2461 60.1529C52.2461 57.6723 53.4864 55.3984 55.3469 53.9513V24.5973C55.3469 21.7033 57.6208 19.2227 60.5148 19.2227C63.4089 19.2227 65.6828 21.7033 65.6828 24.5973V54.1581V54.1581Z" stroke="#8C8C94" stroke-width="2.26957" stroke-miterlimit="22.9256" stroke-linecap="round" stroke-linejoin="round"/>
<path fill-rule="evenodd" clip-rule="evenodd" d="M60.5147 24.3906C61.5483 24.3906 62.3752 25.4242 62.3752 26.4578V57.0521C63.4088 57.6723 64.2357 58.9126 64.2357 60.3596C64.2357 62.4268 62.5819 64.2873 60.308 64.2873C58.2408 64.2873 56.3804 62.4268 56.3804 60.3596C56.3804 58.7059 57.2072 57.4656 58.6543 56.8454V26.4578C58.6543 25.4242 59.4811 24.3906 60.5147 24.3906V24.3906Z" stroke="#8C8C94" stroke-width="2.26957" stroke-miterlimit="22.9256" stroke-linecap="round" stroke-linejoin="round"/>
<path fill-rule="evenodd" clip-rule="evenodd" d="M62.3752 27.6982V57.0522C63.4088 57.6724 64.2357 58.9127 64.2357 60.3597C64.2357 62.4269 62.5819 64.2874 60.308 64.2874C58.2408 64.2874 56.3804 62.4269 56.3804 60.3597C56.3804 58.706 57.2072 57.4657 58.6543 56.8455V27.6982H62.3752Z" fill="#9494A8" stroke="#8C8C94" stroke-width="2.26957" stroke-miterlimit="22.9256" stroke-linecap="round" stroke-linejoin="round"/>
<path fill-rule="evenodd" clip-rule="evenodd" d="M75.1919 37.8274V41.755V37.8274ZM75.1919 48.7835V52.9178V48.7835Z" stroke="#8C8C94" stroke-width="2.26957" stroke-miterlimit="22.9256" stroke-linecap="round" stroke-linejoin="round"/>
<path fill-rule="evenodd" clip-rule="evenodd" d="M81.5999 49.1969L78.0857 47.1297L81.5999 49.1969ZM72.0909 43.6155L68.5767 41.5483L72.0909 43.6155Z" stroke="#8C8C94" stroke-width="2.26957" stroke-miterlimit="22.9256" stroke-linecap="round" stroke-linejoin="round"/>
<path d="M78.0857 43.6155L81.5999 41.5483M68.5767 49.1969L72.0909 47.1297L68.5767 49.1969Z" stroke="#8C8C94" stroke-width="2.26957" stroke-miterlimit="22.9256" stroke-linecap="round" stroke-linejoin="round"/>
<path d="M75.1919 48.7835C77.1328 48.7835 78.7062 47.2102 78.7062 45.2693C78.7062 43.3285 77.1328 41.7551 75.1919 41.7551C73.2511 41.7551 71.6777 43.3285 71.6777 45.2693C71.6777 47.2102 73.2511 48.7835 75.1919 48.7835Z" stroke="#8C8C94" stroke-width="2.26957" stroke-miterlimit="22.9256" stroke-linecap="round" stroke-linejoin="round"/>
<path fill-rule="evenodd" clip-rule="evenodd" d="M6.9746 1.8584H56.1736C57.0004 3.92558 61.5482 12.1943 61.5482 12.401L1.80664 12.1943L6.9746 1.8584V1.8584Z" stroke="#8C8C94" stroke-width="2.26957" stroke-miterlimit="22.9256" stroke-linecap="round" stroke-linejoin="round"/>
<path d="M11.5226 4.75244L9.04199 9.09353" stroke="#8C8C94" stroke-width="1.0087" stroke-miterlimit="22.9256" stroke-linecap="round" stroke-linejoin="round"/>
<path d="M17.724 4.95923L16.6904 8.88688" stroke="#8C8C94" stroke-width="1.0087" stroke-miterlimit="22.9256" stroke-linecap="round" stroke-linejoin="round"/>
<path d="M24.5458 4.95923L24.1323 8.88688" stroke="#8C8C94" stroke-width="1.0087" stroke-miterlimit="22.9256" stroke-linecap="round" stroke-linejoin="round"/>
<path d="M31.5742 4.75244V9.09353" stroke="#8C8C94" stroke-width="1.0087" stroke-miterlimit="22.9256" stroke-linecap="round" stroke-linejoin="round"/>
<path d="M45.4243 4.95916L46.4579 8.88681M51.6259 4.75244L54.1065 9.09353L51.6259 4.75244ZM31.5742 4.75244V9.09353V4.75244ZM38.6026 4.95916L39.0161 8.88681L38.6026 4.95916Z" stroke="#8C8C94" stroke-width="1.0087" stroke-miterlimit="22.9256" stroke-linecap="round" stroke-linejoin="round"/>
</svg>
