<svg width="69" height="71" viewBox="0 0 69 71" fill="none" xmlns="http://www.w3.org/2000/svg">
<path d="M67.0176 1.92688H2.01758V69.5373H67.0176V1.92688Z" stroke="#9494A8" stroke-width="2.73438" stroke-miterlimit="22.9256" stroke-linecap="round" stroke-linejoin="round"/>
<path d="M45.0899 42.1277H2.01758V69.5373H45.0899V42.1277Z" stroke="#9494A8" stroke-width="2.73438" stroke-miterlimit="22.9256" stroke-linecap="round" stroke-linejoin="round"/>
<path d="M46.9172 38.0815H2.01758V42.1277H46.9172V38.0815Z" stroke="#9494A8" stroke-width="2.73438" stroke-miterlimit="22.9256" stroke-linecap="round" stroke-linejoin="round"/>
<path fill-rule="evenodd" clip-rule="evenodd" d="M2.01758 1.92688H67.0176L62.0577 11.455H7.89107L2.01758 1.92688Z" stroke="#9494A8" stroke-width="1.36719" stroke-miterlimit="22.9256" stroke-linecap="round" stroke-linejoin="round"/>
<path d="M7.89111 11.455V38.0815" stroke="#9494A8" stroke-width="1.36719" stroke-miterlimit="22.9256" stroke-linecap="round" stroke-linejoin="round"/>
<path d="M62.0576 11.455V69.5373" stroke="#9494A8" stroke-width="1.36719" stroke-miterlimit="22.9256" stroke-linecap="round" stroke-linejoin="round"/>
<path d="M45.0898 44.8687H62.0577" stroke="#9494A8" stroke-width="1.36719" stroke-miterlimit="22.9256" stroke-linecap="round" stroke-linejoin="round"/>
<path d="M20.9435 14.457H10.2407V38.0815H20.9435V14.457Z" stroke="#9494A8" stroke-width="1.36719" stroke-miterlimit="22.9256" stroke-linecap="round" stroke-linejoin="round"/>
<path d="M33.9953 14.457H23.2925V38.0815H33.9953V14.457Z" stroke="#9494A8" stroke-width="1.36719" stroke-miterlimit="22.9256" stroke-linecap="round" stroke-linejoin="round"/>
<path d="M46.7868 14.457H36.084V38.0815H46.7868V14.457Z" stroke="#9494A8" stroke-width="1.36719" stroke-miterlimit="22.9256" stroke-linecap="round" stroke-linejoin="round"/>
<path d="M59.5778 14.457H48.875V44.8687H59.5778V14.457Z" stroke="#9494A8" stroke-width="1.36719" stroke-miterlimit="22.9256" stroke-linecap="round" stroke-linejoin="round"/>
<path d="M46.6562 40.3004V44.8687" stroke="#9494A8" stroke-width="1.36719" stroke-miterlimit="22.9256" stroke-linecap="round" stroke-linejoin="round"/>
<path d="M24.4671 42.1277L2.66992 69.5373" stroke="#9494A8" stroke-width="1.36719" stroke-miterlimit="22.9256" stroke-linecap="round" stroke-linejoin="round"/>
<path d="M34.5174 42.1277L12.7202 69.5373" stroke="#9494A8" stroke-width="1.36719" stroke-miterlimit="22.9256" stroke-linecap="round" stroke-linejoin="round"/>
<path d="M45.2205 42.1277L23.4233 69.5373" stroke="#9494A8" stroke-width="1.36719" stroke-miterlimit="22.9256" stroke-linecap="round" stroke-linejoin="round"/>
<path d="M45.0897 55.8325L34.2563 69.5373" stroke="#9494A8" stroke-width="1.36719" stroke-miterlimit="22.9256" stroke-linecap="round" stroke-linejoin="round"/>
<path d="M14.9393 42.1277L2.01758 58.4429" stroke="#9494A8" stroke-width="1.36719" stroke-miterlimit="22.9256" stroke-linecap="round" stroke-linejoin="round"/>
</svg>
