<svg width="31" height="39" viewBox="0 0 31 39" fill="none" xmlns="http://www.w3.org/2000/svg">
<g clip-path="url(#clip0_347_685)">
<path fill-rule="evenodd" clip-rule="evenodd" d="M15.3736 0.409119C23.5554 0.409119 30.8281 6.77275 30.8281 14.9546C30.8281 23.1364 19.919 38.5909 15.3736 38.5909C11.7372 38.5909 0.828125 23.1364 0.828125 14.9546C0.828125 6.77275 7.19176 0.409119 15.3736 0.409119V0.409119Z" fill="#EF7F1A"/>
<path d="M15.3736 27.6818C21.9006 27.6818 27.1918 22.3907 27.1918 15.8637C27.1918 9.33665 21.9006 4.04547 15.3736 4.04547C8.8466 4.04547 3.55542 9.33665 3.55542 15.8637C3.55542 22.3907 8.8466 27.6818 15.3736 27.6818Z" fill="#FEFEFE"/>
<path fill-rule="evenodd" clip-rule="evenodd" d="M22.6464 12.2273H17.1918L13.5554 9.5L10.8282 11.3182V10.4091H9.00999V13.1364L6.28271 14.9545H9.00999V21.3182H22.6464V14.9545H25.3736L22.6464 12.2273ZM17.1918 14.9545H21.7373V20.4091H17.1918V14.9545ZM13.5554 11.3182L17.1918 14.0455H9.91908L13.5554 11.3182ZM10.8282 14.9545H16.2827V20.4091H10.8282V14.9545Z" fill="#EF7F1A"/>
<path fill-rule="evenodd" clip-rule="evenodd" d="M22.6464 12.2273H17.1918L13.5554 9.5L10.8282 11.3182V10.4091H9.00999V13.1364L6.28271 14.9545H22.6464H25.3736L22.6464 12.2273ZM13.5554 11.3182L17.1918 14.0455H9.91908L13.5554 11.3182Z" fill="#5B5B5B"/>
</g>
<defs>
<clipPath id="clip0_347_685">
<rect width="30" height="39" fill="white" transform="translate(0.828125)"/>
</clipPath>
</defs>
</svg>
